<?xml version="1.0" encoding="UTF-8" standalone="no"?>
<!-- Created with Inkscape (http://www.inkscape.org/) -->

<svg
   width="104.38672"
   height="66.278603"
   id="svg6688"
   version="1.1"
   xmlns="http://www.w3.org/2000/svg"
   xmlns:svg="http://www.w3.org/2000/svg"
   xmlns:rdf="http://www.w3.org/1999/02/22-rdf-syntax-ns#"
   xmlns:cc="http://creativecommons.org/ns#"
   xmlns:dc="http://purl.org/dc/elements/1.1/">
  <defs
     id="defs6690" />
  <metadata
     id="metadata6693">
    <rdf:RDF>
      <cc:Work
         rdf:about="">
        <dc:format>image/svg+xml</dc:format>
        <dc:type
           rdf:resource="http://purl.org/dc/dcmitype/StillImage" />
      </cc:Work>
    </rdf:RDF>
  </metadata>
  <g
     id="layer1"
     transform="translate(-2.494292,-1014.0894)">
    <g
       id="g6708"
       transform="translate(-67.069808,39.506873)">
      <g
         id="g1126">
        <path
           d="M 104.99375,1002.2974 H 92.747657 v -1.3867 c 0.442685,-0.013 1.012346,-0.059 1.708984,-0.1367 0.696589,-0.078 1.175104,-0.1888 1.435547,-0.3321 0.403619,-0.2474 0.699843,-0.53057 0.888672,-0.84958 0.188775,-0.31901 0.283176,-0.7194 0.283203,-1.20117 V 978.2349 h -0.292969 l -9.453125,23.6133 h -0.976562 l -9.003906,-24.10158 h -0.253907 v 16.54297 c -7e-6,1.60156 0.100904,2.81901 0.302735,3.65234 0.201815,0.83334 0.511059,1.4323 0.927734,1.79687 0.28645,0.2734 0.878897,0.5339 1.777344,0.7813 0.898426,0.2474 1.484363,0.3776 1.757812,0.3906 v 1.3867 H 70.657813 v -1.3867 c 0.585936,-0.052 1.20117,-0.1498 1.845703,-0.293 0.644528,-0.1432 1.142574,-0.3581 1.494141,-0.64452 0.455724,-0.36458 0.768224,-0.92448 0.9375,-1.67969 0.169265,-0.7552 0.253901,-2.01822 0.253906,-3.78906 v -14.17969 c -5e-6,-0.82029 -0.09766,-1.49086 -0.292969,-2.01172 -0.195317,-0.52081 -0.475265,-0.94398 -0.839843,-1.26953 -0.40365,-0.35153 -0.898441,-0.61195 -1.484375,-0.78125 -0.58594,-0.16924 -1.165367,-0.2669 -1.738282,-0.29297 v -1.38672 h 9.453125 l 7.929688,20.78125 6.777344,-17.38281 c 0.24737,-0.63799 0.458958,-1.30531 0.634765,-2.00195 0.175755,-0.69659 0.270156,-1.16208 0.283203,-1.39649 h 9.042971 v 1.38672 c -0.36462,0.013 -0.83011,0.0716 -1.39649,0.17578 -0.56644,0.1042 -0.97985,0.20185 -1.24023,0.29297 -0.44274,0.15628 -0.74222,0.4167 -0.89844,0.78125 -0.15628,0.36461 -0.2344,0.76175 -0.23437,1.19141 v 19.98047 c -3e-5,0.45573 0.0781,0.83985 0.23437,1.15234 0.15622,0.3125 0.4557,0.58591 0.89844,0.82031 0.23434,0.1302 0.65101,0.2507 1.25,0.3613 0.59892,0.1107 1.07418,0.1726 1.42578,0.1856 z"
           style="font-style:normal;font-variant:normal;font-weight:normal;font-stretch:normal;font-size:40px;line-height:125%;font-family:Georgia;-inkscape-font-specification:Georgia;text-align:center;letter-spacing:-4.15px;word-spacing:0px;writing-mode:lr-tb;text-anchor:middle;fill:#ff0000;fill-opacity:1;stroke:none"
           id="path6717" />
        <path
           d="m 122.32812,1001.9458 c -0.61199,0.2214 -1.1491,0.4004 -1.61132,0.5371 -0.46226,0.1368 -0.98635,0.2051 -1.57227,0.2051 -1.01564,0 -1.82619,-0.2376 -2.43164,-0.7129 -0.60548,-0.4752 -0.99285,-1.1686 -1.16211,-2.08005 h -0.11719 c -0.84636,0.93755 -1.75457,1.65365 -2.72461,2.14845 -0.97006,0.4948 -2.13868,0.7422 -3.50586,0.7422 -1.44531,0 -2.63346,-0.4427 -3.56445,-1.3281 -0.93099,-0.8855 -1.39649,-2.04431 -1.39648,-3.47661 -10e-6,-0.74218 0.10416,-1.40624 0.3125,-1.99219 0.20833,-0.58593 0.52083,-1.11327 0.9375,-1.58203 0.32551,-0.39061 0.7552,-0.73892 1.28906,-1.04492 0.53385,-0.30598 1.03515,-0.55012 1.50391,-0.73242 0.58593,-0.22134 1.77408,-0.6315 3.56445,-1.23047 1.79035,-0.59895 2.99803,-1.0677 3.62305,-1.40625 v -1.93359 c -2e-5,-0.16926 -0.0358,-0.49478 -0.10743,-0.97657 -0.0716,-0.48175 -0.22462,-0.93748 -0.45898,-1.36718 -0.26043,-0.48176 -0.62827,-0.90168 -1.10352,-1.25977 -0.47527,-0.35805 -1.1491,-0.53709 -2.02148,-0.53711 -0.59897,2e-5 -1.15561,0.10093 -1.66992,0.30274 -0.51433,0.20184 -0.87566,0.41343 -1.08399,0.63476 0,0.26044 0.0619,0.64455 0.18555,1.15235 0.12369,0.50782 0.18554,0.97657 0.18555,1.40625 -10e-6,0.45574 -0.20509,0.87241 -0.61524,1.25 -0.41016,0.37761 -0.97982,0.56642 -1.70898,0.5664 -0.65105,2e-5 -1.12956,-0.2311 -1.43555,-0.69336 -0.30599,-0.46222 -0.45899,-0.9798 -0.45898,-1.55273 -10e-6,-0.59894 0.21158,-1.17186 0.63476,-1.71875 0.42318,-0.54686 0.97331,-1.03514 1.65039,-1.46485 0.58593,-0.36456 1.29557,-0.6738 2.12891,-0.92773 0.83332,-0.25389 1.64713,-0.38084 2.44141,-0.38086 1.09373,2e-5 2.04751,0.0749 2.86132,0.22461 0.81379,0.14976 1.55272,0.47202 2.2168,0.9668 0.66405,0.48179 1.1686,1.13608 1.51367,1.96289 0.34504,0.82684 0.51756,1.89129 0.51758,3.19336 -2e-5,1.86199 -0.0196,3.51238 -0.0586,4.95117 -0.0391,1.43881 -0.0586,3.01107 -0.0586,4.7168 -1e-5,0.50781 0.0879,0.91146 0.26367,1.21093 0.17577,0.29953 0.44595,0.55343 0.81055,0.76173 0.1953,0.1172 0.50454,0.1823 0.92774,0.1953 0.42315,0.013 0.8561,0.019 1.29882,0.019 z m -6.8164,-10.31246 c -1.10678,0.32553 -2.07684,0.64454 -2.91016,0.95703 -0.83334,0.31251 -1.60808,0.70313 -2.32422,1.17187 -0.65105,0.44272 -1.16537,0.96681 -1.54297,1.57227 -0.37761,0.60547 -0.56641,1.32487 -0.5664,2.1582 -1e-5,1.08073 0.2832,1.875 0.84961,2.38281 0.5664,0.50778 1.2858,0.76168 2.1582,0.76168 0.92447,0 1.73827,-0.2246 2.44141,-0.67379 0.70311,-0.44921 1.29556,-0.97981 1.77734,-1.59179 z"
           style="font-style:normal;font-variant:normal;font-weight:normal;font-stretch:normal;font-size:40px;line-height:125%;font-family:Georgia;-inkscape-font-specification:Georgia;text-align:center;letter-spacing:-4.15px;word-spacing:0px;writing-mode:lr-tb;text-anchor:middle;fill:#ff0000;fill-opacity:1;stroke:none"
           id="path6719" />
        <path
           d="m 132.80703,992.8638 c 0.53384,0.46876 0.944,1.00913 1.23047,1.6211 0.28644,0.61198 0.42967,1.36068 0.42969,2.24609 -2e-5,1.78386 -0.66733,3.24219 -2.00195,4.37501 -1.33465,1.1328 -3.06317,1.6992 -5.18555,1.6992 -1.1198,0 -2.1517,-0.2018 -3.0957,-0.6055 -0.94402,-0.4036 -1.61785,-0.7747 -2.02149,-1.1132 l -0.39062,1.2695 h -1.46485 l -0.19531,-6.69923 h 1.34766 c 0.10416,0.50782 0.32551,1.10027 0.66406,1.77735 0.33854,0.67708 0.74869,1.28906 1.23047,1.83593 0.5078,0.57292 1.11653,1.05465 1.82617,1.44535 0.70963,0.3906 1.50715,0.5859 2.39258,0.5859 1.24999,0 2.21353,-0.2832 2.89062,-0.8496 0.67707,-0.56641 1.01561,-1.37695 1.01563,-2.43165 -2e-5,-0.54687 -0.10744,-1.01887 -0.32227,-1.41601 -0.21485,-0.39713 -0.53061,-0.74544 -0.94726,-1.04492 -0.4297,-0.29947 -0.95705,-0.56966 -1.58203,-0.81055 -0.62501,-0.24088 -1.32163,-0.47851 -2.08985,-0.71289 -0.61199,-0.18228 -1.29232,-0.43293 -2.04101,-0.75195 -0.74871,-0.319 -1.38998,-0.69335 -1.92383,-1.12305 -0.57292,-0.45572 -1.04167,-1.01561 -1.40625,-1.67969 -0.36459,-0.66405 -0.54688,-1.4453 -0.54688,-2.34375 0,-1.5755 0.58594,-2.91014 1.75782,-4.0039 1.17187,-1.09373 2.74087,-1.64061 4.70703,-1.64063 0.7552,2e-5 1.52668,0.0977 2.31445,0.29297 0.78775,0.19533 1.42902,0.42971 1.92383,0.70312 l 0.44922,-1.01562 h 1.40625 l 0.29297,6.19141 h -1.34766 c -0.27345,-1.3802 -0.86264,-2.50324 -1.76758,-3.36914 -0.90496,-0.86587 -2.00847,-1.29881 -3.31055,-1.29883 -1.06771,2e-5 -1.90755,0.26694 -2.51953,0.80078 -0.61198,0.53387 -0.91797,1.1784 -0.91797,1.93359 0,0.58595 0.10091,1.07424 0.30274,1.46485 0.20182,0.39063 0.50455,0.72267 0.9082,0.99609 0.39062,0.26043 0.88216,0.50457 1.47461,0.73242 0.59244,0.22788 1.32486,0.48504 2.19727,0.77149 0.85936,0.27345 1.66991,0.59245 2.43164,0.95703 0.7617,0.36459 1.38996,0.76824 1.88476,1.21093 z"
           style="font-style:normal;font-variant:normal;font-weight:normal;font-stretch:normal;font-size:40px;line-height:125%;font-family:Georgia;-inkscape-font-specification:Georgia;text-align:center;letter-spacing:-4.15px;word-spacing:0px;writing-mode:lr-tb;text-anchor:middle;fill:#ff0000;fill-opacity:1;stroke:none"
           id="path6721" />
        <path
           d="m 145.10234,1001.4576 c -0.84636,0.3515 -1.64714,0.6477 -2.40234,0.8886 -0.75522,0.2409 -1.6797,0.3614 -2.77344,0.3614 -1.61459,0 -2.75065,-0.4069 -3.4082,-1.2207 -0.65756,-0.8138 -0.98633,-1.96294 -0.98633,-3.44731 v -13.04688 h -3.47656 v -1.875 h 3.55469 v -5.99609 h 3.55468 v 5.99609 h 5.52735 v 1.875 h -5.48828 v 10.76172 c -1e-5,0.8073 0.0293,1.48112 0.0879,2.02148 0.0586,0.54037 0.19856,1.01238 0.41992,1.41602 0.20832,0.37761 0.52082,0.66406 0.9375,0.85937 0.41666,0.1953 0.97655,0.293 1.67969,0.293 0.32551,0 0.80402,-0.029 1.43554,-0.088 0.6315,-0.059 1.07746,-0.1335 1.33789,-0.2246 z"
           style="font-style:normal;font-variant:normal;font-weight:normal;font-stretch:normal;font-size:40px;line-height:125%;font-family:Georgia;-inkscape-font-specification:Georgia;text-align:center;letter-spacing:-4.15px;word-spacing:0px;writing-mode:lr-tb;text-anchor:middle;fill:#ff0000;fill-opacity:1;stroke:none"
           id="path6723" />
        <path
           d="m 159.99531,997.76615 c -0.8073,1.53646 -1.88803,2.76045 -3.24218,3.67185 -1.35418,0.9115 -2.91017,1.3672 -4.66797,1.3672 -1.54949,0 -2.90691,-0.2734 -4.07227,-0.8203 -1.16537,-0.5469 -2.12565,-1.2891 -2.88086,-2.22656 -0.75521,-0.9375 -1.31836,-2.03125 -1.68945,-3.28125 -0.3711,-1.25 -0.55664,-2.57161 -0.55664,-3.96485 0,-1.24999 0.19857,-2.4772 0.5957,-3.68164 0.39714,-1.20441 0.97982,-2.28839 1.74805,-3.25195 0.74218,-0.92446 1.66341,-1.66991 2.76367,-2.23633 1.10025,-0.56639 2.33398,-0.84959 3.70117,-0.84961 1.40624,2e-5 2.61067,0.22137 3.61328,0.66406 1.00259,0.44273 1.8164,1.0482 2.44141,1.81641 0.59894,0.72918 1.04491,1.58856 1.33789,2.57812 0.29295,0.9896 0.43944,2.06382 0.43945,3.22266 v 1.28906 h -12.7539 c -1e-5,1.26303 0.12044,2.40887 0.36133,3.4375 0.24088,1.02866 0.62173,1.9336 1.14257,2.71485 0.50781,0.75521 1.17187,1.35091 1.99219,1.78713 0.8203,0.4362 1.79687,0.6543 2.92969,0.6543 1.15884,0 2.15819,-0.2702 2.99805,-0.81057 0.83982,-0.54036 1.65037,-1.51367 2.43164,-2.91993 z m -4.3164,-7.34375 c -2e-5,-0.72916 -0.0619,-1.5104 -0.18555,-2.34375 -0.12371,-0.83332 -0.32228,-1.52993 -0.5957,-2.08985 -0.29949,-0.59894 -0.70965,-1.08722 -1.23047,-1.46484 -0.52085,-0.37759 -1.19142,-0.56639 -2.01172,-0.56641 -1.3672,2e-5 -2.50326,0.56968 -3.4082,1.70899 -0.90496,1.13934 -1.39649,2.72462 -1.47461,4.75586 z"
           style="font-style:normal;font-variant:normal;font-weight:normal;font-stretch:normal;font-size:40px;line-height:125%;font-family:Georgia;-inkscape-font-specification:Georgia;text-align:center;letter-spacing:-4.15px;word-spacing:0px;writing-mode:lr-tb;text-anchor:middle;fill:#ff0000;fill-opacity:1;stroke:none"
           id="path6725" />
        <path
           d="m 172.85703,985.52005 c -1e-5,0.66408 -0.16277,1.25328 -0.48828,1.76758 -0.32554,0.51434 -0.82684,0.7715 -1.50391,0.77149 -0.72918,10e-6 -1.28582,-0.18879 -1.66992,-0.56641 -0.38412,-0.37759 -0.57618,-0.79425 -0.57617,-1.25 -1e-5,-0.28644 0.0228,-0.54686 0.0684,-0.78125 0.0456,-0.23436 0.0879,-0.46873 0.12695,-0.70312 -0.61199,10e-6 -1.32813,0.24741 -2.14843,0.74218 -0.82033,0.49481 -1.51694,1.19794 -2.08985,2.10938 v 11.21094 c -1e-5,0.45573 0.0879,0.82682 0.26367,1.11328 0.17578,0.28648 0.45247,0.50128 0.83008,0.64448 0.32551,0.1303 0.74543,0.2279 1.25977,0.293 0.51431,0.065 0.96027,0.1107 1.33789,0.1367 v 1.2891 h -10.15625 v -1.2891 c 0.29948,-0.026 0.60872,-0.052 0.92773,-0.078 0.31901,-0.026 0.5957,-0.078 0.83008,-0.1562 0.36458,-0.1172 0.63476,-0.3223 0.81055,-0.6153 0.17577,-0.29294 0.26367,-0.6738 0.26367,-1.14256 v -11.89453 c 0,-0.40363 -0.0944,-0.80076 -0.2832,-1.1914 -0.18881,-0.39061 -0.45248,-0.70311 -0.79102,-0.9375 -0.2474,-0.15624 -0.54037,-0.27017 -0.87891,-0.3418 -0.33854,-0.0716 -0.70312,-0.12043 -1.09375,-0.14649 v -1.26953 l 6.40625,-0.42968 0.27344,0.27343 v 2.71485 h 0.0977 c 0.80728,-1.05467 1.70572,-1.85545 2.69531,-2.40235 0.98957,-0.54685 1.89452,-0.82029 2.71484,-0.82031 0.8203,2e-5 1.48762,0.26695 2.00196,0.80078 0.5143,0.53387 0.77147,1.25002 0.77148,2.14844 z"
           style="font-style:normal;font-variant:normal;font-weight:normal;font-stretch:normal;font-size:40px;line-height:125%;font-family:Georgia;-inkscape-font-specification:Georgia;text-align:center;letter-spacing:-4.15px;word-spacing:0px;writing-mode:lr-tb;text-anchor:middle;fill:#ff0000;fill-opacity:1;stroke:none"
           id="path6727" />
      </g>
      <g
         id="g1118"
         transform="translate(-106.77027,29.89185)">
        <path
           d="m 193.65859,989.58255 c 0.58592,0.65106 1.01886,1.36395 1.29883,2.13868 0.27993,0.77475 0.4199,1.67644 0.41992,2.70507 -2e-5,2.44793 -0.90497,4.46615 -2.71484,6.0547 -1.80991,1.5885 -4.05601,2.3828 -6.73828,2.3828 -1.23699,0 -2.47397,-0.1921 -3.71094,-0.5762 -1.23699,-0.3841 -2.30469,-0.8496 -3.20313,-1.3965 l -0.83984,1.4258 h -1.5625 l -0.27344,-9.49216 h 1.58203 c 0.32552,1.17189 0.70638,2.22983 1.14258,3.17383 0.43619,0.94402 1.01237,1.82618 1.72852,2.64648 0.67707,0.76824 1.46809,1.38025 2.37304,1.83595 0.90494,0.4557 1.95637,0.6836 3.1543,0.6836 0.89843,0 1.68293,-0.1172 2.35352,-0.3516 0.67055,-0.2343 1.21417,-0.5664 1.63086,-0.99607 0.41665,-0.42968 0.72589,-0.93424 0.92773,-1.51367 0.20181,-0.57942 0.30272,-1.24674 0.30274,-2.00196 -2e-5,-1.10676 -0.31252,-2.13866 -0.9375,-3.0957 -0.62502,-0.95702 -1.55601,-1.68293 -2.79297,-2.17773 -0.84637,-0.33853 -1.81642,-0.71288 -2.91016,-1.12305 -1.09376,-0.41014 -2.03777,-0.79751 -2.83203,-1.16211 -1.56251,-0.70311 -2.7767,-1.62433 -3.64258,-2.76367 -0.86589,-1.13931 -1.29883,-2.62694 -1.29883,-4.46289 0,-1.05467 0.21484,-2.03774 0.64453,-2.94922 0.42969,-0.91143 1.04167,-1.72524 1.83594,-2.44141 0.7552,-0.67705 1.64713,-1.20765 2.67578,-1.59179 1.02864,-0.38409 2.10286,-0.57615 3.22266,-0.57618 1.27603,3e-5 2.41861,0.19535 3.42773,0.58594 1.0091,0.39065 1.93033,0.84638 2.76368,1.36719 l 0.80078,-1.32813 h 1.5625 l 0.15625,9.19922 h -1.58203 c -0.28648,-1.05466 -0.60875,-2.06378 -0.9668,-3.02734 -0.35809,-0.96352 -0.82359,-1.83591 -1.39649,-2.61719 -0.55991,-0.75518 -1.2435,-1.35739 -2.05078,-1.80664 -0.8073,-0.44919 -1.79688,-0.6738 -2.96875,-0.67383 -1.23699,3e-5 -2.29167,0.39717 -3.16406,1.19141 -0.8724,0.7943 -1.3086,1.76435 -1.30859,2.91016 -1e-5,1.19793 0.27994,2.19077 0.83984,2.97851 0.55989,0.78778 1.37369,1.43557 2.44141,1.94336 0.95051,0.45575 1.88475,0.84963 2.80273,1.18164 0.91796,0.33205 1.80663,0.68687 2.66602,1.06445 0.78123,0.33856 1.53318,0.72268 2.25586,1.15235 0.72263,0.4297 1.35089,0.931 1.88476,1.5039 z"
           style="font-style:normal;font-variant:normal;font-weight:normal;font-stretch:normal;font-size:40px;line-height:125%;font-family:Georgia;-inkscape-font-specification:Georgia;text-align:center;letter-spacing:-4.15px;word-spacing:0px;writing-mode:lr-tb;text-anchor:middle;fill:#ff0000;fill-opacity:1;stroke:none"
           id="path6729" />
        <path
           d="m 192.71172,1008.5865 c 0,-0.6511 0.17904,-1.1817 0.53711,-1.5918 0.35807,-0.4102 0.80404,-0.6153 1.33789,-0.6153 0.41667,0 0.77474,0.078 1.07422,0.2344 0.29948,0.1563 0.5664,0.3581 0.80078,0.6055 0.19531,0.1953 0.40364,0.4622 0.625,0.8008 0.22135,0.3385 0.39713,0.6184 0.52735,0.8398 0.65103,-0.3516 1.42903,-1.2695 2.33398,-2.7539 0.90494,-1.4844 1.55924,-2.7865 1.96289,-3.9063 -1.23699,-3.08589 -2.35678,-5.84631 -3.35937,-8.28121 -1.00261,-2.43488 -2.05079,-4.95441 -3.14454,-7.55859 -0.24739,-0.59894 -0.66406,-1.06444 -1.25,-1.39649 -0.58593,-0.33201 -1.17187,-0.5436 -1.75781,-0.63476 v -1.28906 h 8.78906 v 1.36718 c -0.39063,0.013 -0.85938,0.0944 -1.40625,0.24414 -0.54688,0.14976 -0.82031,0.32229 -0.82031,0.51758 0,0.0781 0.0293,0.20835 0.0879,0.39063 0.0586,0.18231 0.12695,0.37111 0.20508,0.5664 0.49479,1.28908 1.24999,3.1478 2.26563,5.57618 1.01561,2.42839 1.80337,4.37175 2.36328,5.83007 0.58592,-1.39322 1.19465,-2.83528 1.82617,-4.32617 0.6315,-1.49087 1.33788,-3.25194 2.11914,-5.2832 0.0911,-0.24738 0.22134,-0.58918 0.39062,-1.02539 0.16926,-0.43618 0.2539,-0.81053 0.25391,-1.12305 -1e-5,-0.33852 -0.29624,-0.65428 -0.88867,-0.94726 -0.59246,-0.29296 -1.15561,-0.47199 -1.68945,-0.53711 v -1.25 h 7.14843 v 1.21093 c -0.39064,0.0651 -0.90496,0.28973 -1.54297,0.67383 -0.63803,0.38413 -1.11329,0.92775 -1.42578,1.63086 -1.54949,3.59376 -2.92644,6.8685 -4.13086,9.82422 -1.20443,2.95573 -2.11915,5.13017 -2.74414,6.52347 -0.82032,1.8229 -1.55274,3.2454 -2.19726,4.2675 -0.64454,1.0222 -1.2728,1.8262 -1.88477,2.4122 -0.59896,0.5468 -1.14258,0.9147 -1.63086,1.1035 -0.48828,0.1888 -0.99284,0.2832 -1.51367,0.2832 -1.01563,0 -1.81315,-0.2409 -2.39258,-0.7227 -0.57942,-0.4818 -0.86914,-1.0351 -0.86914,-1.6601 z"
           style="font-style:normal;font-variant:normal;font-weight:normal;font-stretch:normal;font-size:40px;line-height:125%;font-family:Georgia;-inkscape-font-specification:Georgia;text-align:center;letter-spacing:-4.15px;word-spacing:0px;writing-mode:lr-tb;text-anchor:middle;fill:#ff0000;fill-opacity:1;stroke:none"
           id="path6731" />
        <path
           d="m 222.4289,992.8638 c 0.53384,0.46876 0.944,1.00913 1.23047,1.6211 0.28644,0.61198 0.42967,1.36068 0.42969,2.24609 -2e-5,1.78386 -0.66734,3.24219 -2.00196,4.37501 -1.33464,1.1328 -3.06316,1.6992 -5.18554,1.6992 -1.1198,0 -2.1517,-0.2018 -3.09571,-0.6055 -0.94401,-0.4036 -1.61784,-0.7747 -2.02148,-1.1132 l -0.39063,1.2695 h -1.46484 l -0.19531,-6.69923 h 1.34765 c 0.10417,0.50782 0.32552,1.10027 0.66407,1.77735 0.33853,0.67708 0.74869,1.28906 1.23047,1.83593 0.5078,0.57292 1.11653,1.05465 1.82617,1.44535 0.70963,0.3906 1.50715,0.5859 2.39258,0.5859 1.24999,0 2.21353,-0.2832 2.89062,-0.8496 0.67707,-0.56641 1.01561,-1.37695 1.01563,-2.43165 -2e-5,-0.54687 -0.10744,-1.01887 -0.32227,-1.41601 -0.21486,-0.39713 -0.53061,-0.74544 -0.94727,-1.04492 -0.42969,-0.29947 -0.95704,-0.56966 -1.58203,-0.81055 -0.62501,-0.24088 -1.32162,-0.47851 -2.08984,-0.71289 -0.61199,-0.18228 -1.29232,-0.43293 -2.04102,-0.75195 -0.7487,-0.319 -1.38997,-0.69335 -1.92382,-1.12305 -0.57292,-0.45572 -1.04167,-1.01561 -1.40625,-1.67969 -0.36459,-0.66405 -0.54688,-1.4453 -0.54688,-2.34375 0,-1.5755 0.58594,-2.91014 1.75781,-4.0039 1.17187,-1.09373 2.74088,-1.64061 4.70703,-1.64063 0.7552,2e-5 1.52669,0.0977 2.31446,0.29297 0.78775,0.19533 1.42902,0.42971 1.92383,0.70312 l 0.44921,-1.01562 h 1.40625 l 0.29297,6.19141 h -1.34765 c -0.27345,-1.3802 -0.86265,-2.50324 -1.76758,-3.36914 -0.90496,-0.86587 -2.00847,-1.29881 -3.31055,-1.29883 -1.06771,2e-5 -1.90756,0.26694 -2.51953,0.80078 -0.61198,0.53387 -0.91797,1.1784 -0.91797,1.93359 0,0.58595 0.10091,1.07424 0.30274,1.46485 0.20181,0.39063 0.50455,0.72267 0.9082,0.99609 0.39062,0.26043 0.88215,0.50457 1.47461,0.73242 0.59244,0.22788 1.32486,0.48504 2.19726,0.77149 0.85937,0.27345 1.66991,0.59245 2.43165,0.95703 0.7617,0.36459 1.38996,0.76824 1.88476,1.21093 z"
           style="font-style:normal;font-variant:normal;font-weight:normal;font-stretch:normal;font-size:40px;line-height:125%;font-family:Georgia;-inkscape-font-specification:Georgia;text-align:center;letter-spacing:-4.15px;word-spacing:0px;writing-mode:lr-tb;text-anchor:middle;fill:#ff0000;fill-opacity:1;stroke:none"
           id="path6733" />
        <path
           d="m 234.72422,1001.4576 c -0.84637,0.3515 -1.64715,0.6477 -2.40234,0.8886 -0.75522,0.2409 -1.6797,0.3614 -2.77344,0.3614 -1.61459,0 -2.75066,-0.4069 -3.40821,-1.2207 -0.65755,-0.8138 -0.98633,-1.96294 -0.98632,-3.44731 v -13.04688 h -3.47657 v -1.875 h 3.55469 v -5.99609 h 3.55469 v 5.99609 h 5.52734 v 1.875 h -5.48828 v 10.76172 c -1e-5,0.8073 0.0293,1.48112 0.0879,2.02148 0.0586,0.54037 0.19856,1.01238 0.41992,1.41602 0.20833,0.37761 0.52083,0.66406 0.9375,0.85937 0.41666,0.1953 0.97656,0.293 1.67969,0.293 0.32551,0 0.80403,-0.029 1.43555,-0.088 0.6315,-0.059 1.07746,-0.1335 1.33789,-0.2246 z"
           style="font-style:normal;font-variant:normal;font-weight:normal;font-stretch:normal;font-size:40px;line-height:125%;font-family:Georgia;-inkscape-font-specification:Georgia;text-align:center;letter-spacing:-4.15px;word-spacing:0px;writing-mode:lr-tb;text-anchor:middle;fill:#ff0000;fill-opacity:1;stroke:none"
           id="path6735" />
        <path
           d="m 249.61719,997.76615 c -0.80731,1.53646 -1.88803,2.76045 -3.24218,3.67185 -1.35418,0.9115 -2.91017,1.3672 -4.66797,1.3672 -1.54949,0 -2.90691,-0.2734 -4.07227,-0.8203 -1.16537,-0.5469 -2.12565,-1.2891 -2.88086,-2.22656 -0.75521,-0.9375 -1.31836,-2.03125 -1.68945,-3.28125 -0.3711,-1.25 -0.55664,-2.57161 -0.55664,-3.96485 0,-1.24999 0.19857,-2.4772 0.5957,-3.68164 0.39714,-1.20441 0.97982,-2.28839 1.74805,-3.25195 0.74218,-0.92446 1.66341,-1.66991 2.76367,-2.23633 1.10025,-0.56639 2.33398,-0.84959 3.70117,-0.84961 1.40624,2e-5 2.61067,0.22137 3.61328,0.66406 1.00259,0.44273 1.81639,1.0482 2.44141,1.81641 0.59894,0.72918 1.0449,1.58856 1.33789,2.57812 0.29295,0.9896 0.43944,2.06382 0.43945,3.22266 v 1.28906 h -12.7539 c -1e-5,1.26303 0.12044,2.40887 0.36133,3.4375 0.24088,1.02866 0.62173,1.9336 1.14257,2.71485 0.50781,0.75521 1.17187,1.35091 1.99219,1.78713 0.8203,0.4362 1.79687,0.6543 2.92969,0.6543 1.15884,0 2.15819,-0.2702 2.99805,-0.81057 0.83982,-0.54036 1.65037,-1.51367 2.43164,-2.91993 z m -4.3164,-7.34375 c -2e-5,-0.72916 -0.0619,-1.5104 -0.18555,-2.34375 -0.12371,-0.83332 -0.32228,-1.52993 -0.5957,-2.08985 -0.29949,-0.59894 -0.70965,-1.08722 -1.23047,-1.46484 -0.52085,-0.37759 -1.19142,-0.56639 -2.01172,-0.56641 -1.3672,2e-5 -2.50326,0.56968 -3.4082,1.70899 -0.90496,1.13934 -1.39649,2.72462 -1.47461,4.75586 z"
           style="font-style:normal;font-variant:normal;font-weight:normal;font-stretch:normal;font-size:40px;line-height:125%;font-family:Georgia;-inkscape-font-specification:Georgia;text-align:center;letter-spacing:-4.15px;word-spacing:0px;writing-mode:lr-tb;text-anchor:middle;fill:#ff0000;fill-opacity:1;stroke:none"
           id="path6737" />
        <path
           d="m 280.72109,1002.2974 h -9.39453 v -1.2891 c 0.29945,-0.026 0.60219,-0.052 0.9082,-0.078 0.30597,-0.026 0.57615,-0.078 0.81055,-0.1562 0.36456,-0.1172 0.63474,-0.3223 0.81055,-0.6153 0.17575,-0.29294 0.26364,-0.6738 0.26367,-1.14256 v -9.9414 c -3e-5,-1.35415 -0.30927,-2.39908 -0.92774,-3.13477 -0.61851,-0.73566 -1.39,-1.1035 -2.31445,-1.10351 -0.63804,1e-5 -1.237,0.0977 -1.79687,0.29296 -0.55992,0.19533 -1.07424,0.46877 -1.54297,0.82032 -0.37763,0.28647 -0.69338,0.59572 -0.94727,0.92773 -0.25392,0.33205 -0.44598,0.60874 -0.57617,0.83008 v 11.11328 c -2e-5,0.45573 0.0781,0.83008 0.23438,1.12305 0.15622,0.29292 0.42315,0.51762 0.80078,0.67382 0.29945,0.1172 0.56964,0.2051 0.81054,0.2637 0.24087,0.059 0.55662,0.1009 0.94727,0.1269 v 1.2891 h -9.19922 v -1.2891 c 0.29947,-0.026 0.58918,-0.052 0.86914,-0.078 0.27993,-0.026 0.5371,-0.078 0.77149,-0.1562 0.36456,-0.1172 0.63475,-0.3223 0.81054,-0.6153 0.17577,-0.29295 0.26366,-0.67381 0.26367,-1.14256 v -9.94141 c -1e-5,-1.35415 -0.30926,-2.39907 -0.92773,-3.13476 -0.6185,-0.73566 -1.38999,-1.1035 -2.31445,-1.10352 -0.63804,2e-5 -1.23699,0.10093 -1.79688,0.30274 -0.5599,0.20184 -1.07423,0.47853 -1.54297,0.83007 -0.37761,0.28648 -0.69662,0.60874 -0.95703,0.9668 -0.26042,0.35809 -0.45574,0.62827 -0.58594,0.81055 v 11.03515 c 0,0.44271 0.0911,0.81381 0.27344,1.11328 0.18228,0.29946 0.45572,0.52736 0.82031,0.68356 0.27343,0.1302 0.55338,0.2279 0.83985,0.293 0.28645,0.065 0.60546,0.1107 0.95703,0.1367 v 1.2891 h -9.35547 v -1.2891 c 0.29948,-0.026 0.60872,-0.052 0.92773,-0.078 0.31901,-0.026 0.5957,-0.078 0.83008,-0.1563 0.36458,-0.1171 0.63476,-0.3222 0.81055,-0.6152 0.17578,-0.29295 0.26367,-0.67381 0.26367,-1.14257 v -11.97265 c 0,-0.41665 -0.0944,-0.791 -0.2832,-1.12305 -0.18881,-0.33201 -0.45248,-0.61522 -0.79102,-0.84961 -0.2474,-0.15623 -0.55339,-0.28318 -0.91797,-0.38086 -0.36458,-0.0976 -0.74219,-0.15948 -1.13281,-0.18555 v -1.26953 l 6.44531,-0.42968 0.27344,0.27343 v 2.75391 h 0.13672 c 0.32551,-0.3255 0.72265,-0.70962 1.19141,-1.15234 0.46874,-0.44269 0.90493,-0.80077 1.30859,-1.07422 0.45572,-0.31248 1.02538,-0.5729 1.70898,-0.78125 0.68359,-0.20832 1.42252,-0.31248 2.2168,-0.3125 1.24999,2e-5 2.3242,0.3353 3.22266,1.00586 0.89842,0.67059 1.54295,1.48113 1.93359,2.43164 0.46873,-0.45572 0.88214,-0.85611 1.24024,-1.20117 0.35805,-0.34504 0.83005,-0.71288 1.41601,-1.10352 0.49477,-0.33852 1.07745,-0.61196 1.74805,-0.82031 0.67055,-0.20832 1.41599,-0.31248 2.23633,-0.3125 1.62757,2e-5 2.91663,0.53387 3.86718,1.60156 0.95049,1.06773 1.42575,2.70835 1.42579,4.92187 v 9.78516 c -4e-5,0.45573 0.0781,0.83008 0.23437,1.12305 0.15622,0.29293 0.42314,0.51753 0.80078,0.67383 0.29945,0.1172 0.59567,0.2051 0.88867,0.2637 0.29294,0.059 0.62171,0.1009 0.98633,0.1269 z"
           style="font-style:normal;font-variant:normal;font-weight:normal;font-stretch:normal;font-size:40px;line-height:125%;font-family:Georgia;-inkscape-font-specification:Georgia;text-align:center;letter-spacing:-4.15px;word-spacing:0px;writing-mode:lr-tb;text-anchor:middle;fill:#ff0000;fill-opacity:1;stroke:none"
           id="path6739" />
      </g>
    </g>
  </g>
</svg>
