<?xml version="1.0" encoding="UTF-8" standalone="no"?>
<!-- Created with Inkscape (http://www.inkscape.org/) -->

<svg
   version="1.0"
   width="552.44397"
   height="551.69598"
   viewBox="0 0 552.44397 551.69598"
   id="Layer_1"
   xml:space="preserve"
   xmlns="http://www.w3.org/2000/svg"
   xmlns:svg="http://www.w3.org/2000/svg"><defs
   id="defs3579" />

<g
   style="display:inline"
   id="layer2"
   transform="translate(-72.638,-130.871)"><polygon
     points="348.859,279.855 409.681,303.144 425.969,284.864 425.969,160.65 348.859,190.552 285.138,304.273 "
     style="fill:#0222a9;fill-opacity:1;fill-rule:evenodd"
     id="polygon3542" /><polygon
     points="431.729,647.514 348.859,682.567 348.859,343.34 431.729,311.605 546.82,476.102 546.82,266.959 625.082,236.777 625.082,566.257 546.82,599.126 431.729,448.924 "
     style="fill:#011da9;fill-opacity:1;fill-rule:evenodd"
     id="polygon3558" /><polygon
     points="150.899,424.061 150.899,599.126 224.326,566.618 "
     style="fill:#0222a9;fill-opacity:1;fill-rule:evenodd"
     id="polygon3560" /></g><g
   id="layer3"
   transform="translate(-72.638,-130.871)"><polygon
     points="285.138,304.273 348.859,190.552 271.745,160.563 229.163,236.777 265.997,311.596 "
     style="fill:#069330;fill-opacity:1;fill-rule:evenodd"
     id="polygon3538" /><polygon
     points="546.82,266.959 546.82,476.102 431.729,311.605 409.681,303.144 468.582,236.777 "
     style="fill:#069330;fill-opacity:1;fill-rule:evenodd"
     id="polygon3540" /><polygon
     points="72.638,566.257 150.899,599.126 150.899,424.061 265.997,647.514 348.859,682.567 348.859,343.34 265.997,311.596 265.997,483.808 150.899,266.959 72.638,236.777 "
     style="fill:#069330;fill-opacity:1;fill-rule:evenodd"
     id="polygon3552" /></g><g
   id="layer4"
   transform="translate(-72.638,-130.871)"><polygon
     points="150.899,266.959 229.163,236.777 265.997,311.596 265.997,483.808 "
     style="fill:#fe2015;fill-opacity:1;fill-rule:evenodd"
     id="polygon3554" /><polygon
     points="431.729,530.988 455.231,563.957 546.82,599.126 431.729,448.924 "
     style="fill:#fe2015;fill-opacity:1;fill-rule:evenodd"
     id="polygon3556" /></g><g
   id="layer5"
   transform="translate(-72.638,-130.871)"><polygon
     points="265.997,311.596 348.859,279.855 431.729,311.596 348.859,343.34 "
     style="fill:#ffc001;fill-opacity:1;fill-rule:evenodd"
     id="polygon3544" /><polygon
     points="625.082,236.777 546.82,266.959 468.551,236.777 546.82,206.669 "
     style="fill:#ffc001;fill-opacity:1;fill-rule:evenodd"
     id="polygon3546" /><polygon
     points="229.163,236.777 150.899,266.959 72.638,236.777 150.899,206.669 "
     style="fill:#ffc001;fill-opacity:1;fill-rule:evenodd"
     id="polygon3548" /><polygon
     points="271.745,160.563 348.859,190.552 425.969,160.65 348.859,130.871 "
     style="fill:#ffc001;fill-opacity:1;fill-rule:evenodd"
     id="polygon3550" /></g></svg>
