<?xml version="1.0" encoding="UTF-8" standalone="no"?>
<!-- Generator: Adobe Illustrator 18.0.0, SVG Export Plug-In . SVG Version: 6.00 Build 0)  -->

<svg
   version="1.1"
   id="Layer_1"
   x="0px"
   y="0px"
   viewBox="0 0 284.86582 76.894112"
   enable-background="new 0 0 479.4 46.8"
   xml:space="preserve"
   width="284.86581"
   height="76.894112"
   xmlns="http://www.w3.org/2000/svg"
   xmlns:svg="http://www.w3.org/2000/svg"><defs
   id="defs31" />












<g
   id="g1855"
   transform="translate(-226.26549,45.265928)"><path
     d="m 379.31709,-44.364117 c 5.1,0 8.2,2.2 11.2,5.8 1.1,-1 2.2,-1.9 3.5,-2.7 3.1,-2 6.6,-3 10.1,-3 h 47 l -3.1,4.9 -14.6293,22.349458 -2.4707,17.85054187 h -18.9 l 0.4,-2.69999997 c -0.2,0.1 -0.4,0.3 -0.6,0.4 -4.4,2.7 -9.4,3.6 -14.1,2.5 -3.6,-0.80000003 -6.8,-2.8 -9.2,-5.4 -3.2,3.1 -7.5,5.19999997 -11.6,5.19999997 l -92.90001,0.1 -1.5,-8.49999997 -3.8,8.49999997 h -15.5 c -4.9,0.80000003 -9.8,0.10000003 -14.2,-2.09999997 -6,-3.2 -10,-8.8 -10.6,-15.0999999 -1.1,-10.5 3,-18.9 11.6,-24.2 8.3,-5.1 17.1,-6.2 26.2,-3 l 1.7,0.6 0.6,-1.4 h 17.4 l 1.3,7.8 2.6,-7.9 h 79.50001"
     id="path2" /><path
     fill="#ffffff"
     d="m 282.01708,-21.664117 2.9,-6.5 1.3,6.5 h -4.2 m 39.9,-16.9 -7.8,18.3 -3.3,-18.3 h -6.8 l -8.8,27 -4.5,-27 h -8.4 l -12.8,28.9999999 1.9,-12.0999999 h -12.7 l -1,6.2 h 5.3 l -0.6,3.3 c -3,1.3 -8.2,0.9 -10.4,-3.1 -1.4,-2.5 -2.7,-8.1 3.2,-13.2 4.8,-4.2 13.1,-4.9 17.9,-2.7 0,0 0.6,-3.5 1.1,-6.8 -9.2,-3.2 -16.4,-0.5 -21.2,2.4 -6.5,4 -9.6,10.2 -8.8,18.6 1,9.6999999 13.5,15.7999999 24.2,9.6999999 0.1,-0.1 0.2,-0.1 0.2,-0.1 l -1,2.3 h 7.2 l 4.5,-9.9999999 h 7.9 l 1.7,9.9999999 h 11.6 l 5.9,-18.5999999 3.8,18.5999999 h 4.6 l 8.9,-20.5999999 0.9,20.5999999 h 6.8 l -1.3,-33.4999999 h -8.2"
     id="path12" /><polyline
     fill="#ffffff"
     points="93.9,40.1 113,40.1 114.1,32.9 102.1,32.9 103.1,27 113.5,27 114.6,19.8 104.1,19.8 105,13.9   117,13.9 118.1,6.7 99.2,6.7 93.9,40.1 "
     id="polyline14"
     transform="translate(238.21708,-45.264117)" /><polyline
     fill="#ffffff"
     points="187.1,17.6 182.9,6.7 175,6.7 183.1,24.3 180.6,40.1 187.5,40.1 189.6,26.1 201.9,6.7 193.9,6.7   187.1,17.6 "
     id="polyline16"
     transform="translate(238.21708,-45.264117)" /><path
     fill="#ffffff"
     d="m 409.31709,-18.664117 c -1.8,5.5 -6.3,8.6999999 -9.9,7.1 -3.6,-1.6 -5,-7.4 -3.2,-13 1.8,-5.5 6.3,-8.7 9.9,-7.1 3.7,1.7 5.1,7.5 3.2,13 m -2.6,-19.6 c -7.6,-1.7 -15.5,4.3 -17.6,13.5 -2.1,9.2 2.3,18.0999999 9.9,19.8999999 7.6,1.8 15.5,-4.3 17.6,-13.4999999 2.1,-9.2 -2.4,-18.1 -9.9,-19.9"
     id="path18" /><path
     fill="#ffffff"
     d="m 376.31709,-25.164117 c -3.8,0 -4.8,0 -4.8,0 l 1.1,-6.2 c 0,0 0.1,0 4.4,0 4.9,0 4,6.2 -0.7,6.2 m -0.8,13.5 c -3.8,0 -6,0 -6,0 l 1.1,-6.6 c 0,0 1.4,0 5.7,0 5.4,-0.1 5.3,6.6 -0.8,6.6 m 4,-26.7 c -3.7,-0.1 -12.8,0 -12.8,0 h 0.1 l -5.3,33.0999999 c 0,0 10.9,0 15.4,0 6.3,0 15.6,-9.2999999 7.2,-16.9999999 8.6,-9 0,-16 -4.6,-16.1"
     id="path20" /></g><path
   d="m 21.22766,41.594112 56.08626,-0.1 5.4,9.300001 4.8,-9.200001 h 39.2 l 9.7,7.600001 v -7.600001 h 73.8 v 35.300001 h -68.1 l -9.9,-7.7 v 7.7 h -55.2 v 0 l -3.7,-6.1 c -3,3.4 -8.4,6.1 -17.3,6.1 h -49 H 0 Z"
   id="path1565" /><path
   fill="#ffffff"
   d="m 54.91392,65.294113 h -6.2 v -12.6 h 8.8 c 4.7,0 7,1.9 7,6 0,5 -2.5,6.6 -9.6,6.6 m 43.3,-17.9 h -7.2 l -0.2,0.4 -8.1,14.9 -8.7,-14.9 -0.2,-0.3 h -7.7 l 0.6,1 1.5,2.4 c -2.4,-2.3 -6,-3.5 -10.7,-3.5 h -15.5 v 19.4 l -11.5,-19 -0.2,-0.3 h -5.9 l -0.2,0.3 -13.1,22 -0.6,1 h 5.1 v 0 h 11.4 v -5.2 h -6.7 l 6.7,-12.1 9.5,16.9 0.2,0.3 h 7.6 v 0 h 11.7 c 10.1,0 15.3,-4 15.3,-11.8 0,-1.4 -0.2,-2.6 -0.5,-3.7 l 9.2,15.2 0.2,0.3 h 4.5 l 0.2,-0.3 12.7,-22 0.6,-1"
   id="path4" /><polyline
   fill="#ffffff"
   points="334.4,11.7 333.7,11.7 333.7,25.6 316.2,11.9 316,11.7 311.4,11.7 311.4,31.1 299.9,12.1   299.7,11.7 293.8,11.7 293.6,12.1 280.5,34 279.9,35.1 286.9,35.1 286.9,35.1 296.5,35.1 296.5,29.9 289.8,29.9 296.5,17.8   306,34.7 306.2,35.1 313.8,35.1 313.8,35.1 317.6,35.1 317.6,21 335.1,34.9 335.3,35.1 339.9,35.1 339.9,11.7 334.4,11.7 "
   id="polyline6"
   transform="translate(-191.48608,35.694112)" /><path
   fill="#ffffff"
   d="m 170.61392,47.394113 h -13.7 c -4.8,0 -6.4,1.5 -6.4,5.9 v 11.6 c 0,4.4 1.6,5.9 6.4,5.9 h 13.7 c 4.8,0 6.4,-1.5 6.4,-5.9 v -3.3 h -0.7 -5.4 -0.7 v 3.6 h -13.1 v -12.3 h 13.1 v 3.2 h 0.7 6.1 v -2.8 c 0,-4.5 -1.6,-5.9 -6.4,-5.9"
   id="path8" /><polyline
   fill="#ffffff"
   points="395.2,29.6 377.4,29.6 377.4,25.5 388.1,25.5 388.1,20.4 377.4,20.4 377.4,17 395.6,17 395.6,11.7   370.7,11.7 370.7,35.1 395.9,35.1 395.9,29.6 395.2,29.6 "
   id="polyline10"
   transform="translate(-191.48608,35.694112)" /><path
   d="m 243.0658,67.194113 c 0,-2.8 -2.7,-4.1 -2.7,-4.1 -1.7,-0.8 -3.7,-1.4 -8.9,-2.9 -5.5,-1.5 -7.8,-2.3 -9.7,-3.4 -2.1,-1.2 -4.1,-3.1 -4.1,-6.2 0,-2.2 1.1,-4.3 3.8,-5.800001 2.7,-1.6 6.6,-2.5 11.9,-2.5 8.5,0 13.1,2.8 14.6,6.600001 l -6.1,0.4 c -1.2,-1.9 -3.7,-3.700001 -8.9,-3.700001 -2.7,0 -5.4,0.500001 -7,1.500001 -1.4,0.8 -2.2,1.9 -2.2,3.3 0,1.7 1.2,3.1 3.1,3.9 1.9,0.9 3.9,1.5 9.2,2.8 4.9,1.4 7.5,2.2 9.5,3.4 2.1,1.4 3.9,3.4 3.9,6.2 0,2.5 -1.3,4.8 -4.1,6.6 -2.7,1.7 -6.8,3.2 -12.7,3.2 -9.5,0 -14.4,-2.9 -16.2,-6.8 l 6.2,-0.5 c 1.5,2.2 4.7,4.1 10.2,4.1 3.6,0 6.2,-1 8,-2.1 0,-0.1 2.2,-1.3 2.2,-4"
   id="path24" /><path
   d="m 265.1658,62.894113 h 2 c 11.7,0 17.7,-2.9 17.7,-10.2 0,-6.1 -4.7,-9.900001 -17.1,-9.900001 h -13.6 v 33.000001 h 6.5 v -29.7 h 6.9 c 7.4,0 10.7,2.2 10.7,6.6 0,4.9 -3.5,6.8 -11.4,6.8 h -1.7 v 3.4"
   id="path26" />
</svg>
