<?xml version="1.0" encoding="UTF-8" standalone="no"?>
<svg
   height="64"
   viewBox="0 -960 2560 2560"
   width="64"
   fill="#e3e3e3"
   version="1.1"
   id="svg4"
   xmlns="http://www.w3.org/2000/svg"
   xmlns:svg="http://www.w3.org/2000/svg">
  <defs
     id="defs8" />
  <rect
     style="fill:none;stroke-width:160;stroke-linecap:round;stroke-linejoin:round;paint-order:fill markers stroke;stop-color:#000000"
     id="rect865"
     width="2560"
     height="2560"
     x="0"
     y="-960" />
  <path
     d="m 542.30839,989.9032 q -76.07444,0 -130.24866,-54.1743 -54.17425,-54.1743 -54.17425,-130.24863 V -669.9031 l 154.4542,154.4542 152.14888,-154.4542 154.45418,154.4542 154.45419,-154.4542 152.14887,154.4542 154.4543,-154.4542 154.4542,154.4542 152.1489,-154.4542 154.4543,154.4542 154.454,-154.4542 152.1489,154.4542 154.4542,-154.4542 V 805.48027 q 0,76.07433 -54.1741,130.24863 -54.1743,54.1743 -130.2488,54.1743 z m 0,-184.42293 H 1187.7885 V 252.2114 H 542.30839 Z m 829.90321,0 h 645.4801 V 621.0572 h -645.4801 z m 0,-368.84597 h 645.4801 V 252.2114 H 1372.2116 Z M 542.30839,67.78849 H 2017.6917 V -208.84586 H 542.30839 Z"
     id="path2"
     style="fill:#ff0000;stroke-width:1" />
</svg>
