<?xml version="1.0" encoding="UTF-8" standalone="no"?>
<svg
   height="64"
   viewBox="0 -960 2560 2560"
   width="64"
   fill="#e3e3e3"
   version="1.1"
   id="svg4"
   xmlns="http://www.w3.org/2000/svg"
   xmlns:svg="http://www.w3.org/2000/svg">
  <defs
     id="defs8" />
  <rect
     style="fill:none;stroke-width:160;stroke-linecap:round;stroke-linejoin:round;paint-order:fill markers stroke;stop-color:#000000"
     id="rect847"
     width="2560"
     height="2560"
     x="-1.1368684e-13"
     y="-960" />
  <path
     d="M 652.76494,110.95698 624.36179,-31.058495 Q 595.9587,-42.89314 571.10606,-55.911215 546.25327,-68.929321 520.21708,-87.864698 l -137.2816,42.604637 -94.67707,-160.950859 108.87852,-94.67699 q -4.73381,-30.77005 -4.73381,-61.54006 0,-30.77001 4.73381,-61.54004 l -108.87852,-94.67699 94.67707,-160.95086 137.2816,42.60464 q 26.03619,-18.93541 50.88898,-31.95349 24.85264,-13.01808 53.25573,-24.85272 l 28.40315,-142.01549 h 189.354 l 28.40296,142.01549 q 28.40317,11.83464 53.25587,24.85272 24.8527,13.01808 50.88882,31.95349 l 137.28161,-42.60464 94.6771,160.95086 -108.8783,94.67699 q 4.7335,30.77003 4.7335,61.54004 0,30.77001 -4.7335,61.54006 l 108.8783,94.67699 -94.6771,160.950859 -137.28161,-42.604637 q -26.03612,18.935377 -50.88882,31.953483 -24.8527,13.018075 -53.25587,24.85272 L 842.11894,110.95698 Z m 94.67689,-284.03099 q 78.10857,0 133.73128,-55.62271 55.62272,-55.62271 55.62272,-133.73125 0,-78.10852 -55.62272,-133.73123 -55.62271,-55.62274 -133.73128,-55.62274 -78.10834,0 -133.73124,55.62274 -55.62261,55.62271 -55.62261,133.73123 0,78.10854 55.62261,133.73125 55.6229,55.62271 133.73124,55.62271 z M 1500.1238,1152.404 1457.5193,953.58231 q -40.2377,-14.20166 -74.5581,-34.32051 -34.3206,-20.11884 -67.4574,-46.15506 L 1126.1498,934.64683 993.60219,707.42201 1145.0852,574.87424 q -4.7339,-42.60466 -4.7339,-85.20929 0,-42.60466 4.7339,-85.20932 L 993.60219,271.90786 1126.1498,44.683083 l 189.354,61.540057 q 33.1368,-26.036177 67.4574,-46.155043 34.3204,-20.118867 74.5581,-34.320406 l 42.6045,-198.821701 h 265.0958 l 42.6047,198.821701 q 40.2376,14.201539 74.5581,34.320406 34.3202,20.118866 67.4574,46.155043 l 189.3539,-61.540057 132.5479,227.224777 -151.4835,132.54777 q 4.734,42.60466 4.734,85.20932 0,42.60463 -4.734,85.20929 l 151.4835,132.54777 -132.5479,227.22482 -189.3539,-61.54009 q -33.1372,26.03622 -67.4574,46.15506 -34.3205,20.11885 -74.5581,34.32051 l -42.6047,198.82169 z m 132.548,-378.70808 q 118.3462,0 201.1886,-82.84238 82.8422,-82.84236 82.8422,-201.18859 0,-118.34624 -82.8422,-201.18859 -82.8424,-82.84238 -201.1886,-82.84238 -118.3462,0 -201.1886,82.84238 -82.8426,82.84235 -82.8426,201.18859 0,118.34623 82.8426,201.18859 82.8424,82.84238 201.1886,82.84238 z"
     id="path2"
     style="fill:#ff0000;stroke-width:0.999992" />
</svg>
