<?xml version="1.0" encoding="UTF-8" standalone="no"?>
<svg
   height="64"
   viewBox="0 -960 2560 2560"
   width="64"
   fill="#e3e3e3"
   version="1.1"
   id="svg4"
   xmlns="http://www.w3.org/2000/svg"
   xmlns:svg="http://www.w3.org/2000/svg">
  <defs
     id="defs8" />
  <path
     d="m 605.32812,992.05949 c -46.20409,0 -85.7576,-16.45145 -118.66051,-49.35436 C 453.7647,909.80222 437.31325,870.24871 437.31325,824.04462 V -344.04462 c 0,-46.20409 16.45145,-85.75759 49.35436,-118.6605 32.90291,-32.90291 73.02761,-56.59705 118.66051,-49.35437 h 504.04438 l 168.0149,168.01487 h 672.0595 c 46.2041,0 85.7576,16.45146 118.6605,49.35438 32.9029,32.90291 49.3543,72.45641 49.3543,118.6605 H 1208.0812 L 1040.0665,-344.04462 H 605.32812 V 824.04462 L 806.94594,-8.01487 H 2243.4729 L 2027.1537,872.3489 c -11.2009,36.40322 -31.8527,65.45579 -61.9554,87.15771 -30.1027,21.70192 -63.3556,32.55288 -99.7589,32.55288 z M 781.74371,824.04462 H 1865.4394 L 2016.6528,160.00001 H 932.9571 Z m 0,0 L 932.9571,160.00001 Z M 605.32812,-176.02974 v -168.01488 z"
     id="path2"
     style="fill:#ff0000;stroke-width:0.999999" />
  <rect
     style="fill:none;stroke-width:160;stroke-linecap:round;stroke-linejoin:round;paint-order:fill markers stroke;stop-color:#000000"
     id="rect847"
     width="2560"
     height="2560"
     x="0"
     y="-960" />
</svg>
